HIERARCHY
ROOT Hips
{
	OFFSET 47.253101 -12.395313 84.192299
	CHANNELS 6 Xposition Yposition Zposition Xrotation Yrotation Zrotation
	JOINT spine
	{
		OFFSET 0.000000 -0.359108 6.244789
		CHANNELS 3 Xrotation Yrotation Zrotation
		JOINT spine1
		{
			OFFSET 0.000000 -0.000002 9.069412
			CHANNELS 3 Xrotation Yrotation Zrotation
			JOINT spine2
			{
				OFFSET 0.000000 -0.000001 8.690140
				CHANNELS 3 Xrotation Yrotation Zrotation
				JOINT Neck
				{
					OFFSET 0.000000 -1.063724 22.311203
					CHANNELS 3 Xrotation Yrotation Zrotation
					JOINT Head
					{
						OFFSET 0.000000 -0.000001 6.740814
						CHANNELS 3 Xrotation Yrotation Zrotation
						End Site
						{
							OFFSET 0.000000 5.380967 16.316498
						}
					}
				}
				JOINT RightShoulder
				{
					OFFSET -3.659161 0.509512 9.384682
					CHANNELS 3 Xrotation Yrotation Zrotation
					JOINT RightArm
					{
						OFFSET 0.000000 -0.000002 12.308907
						CHANNELS 3 Xrotation Yrotation Zrotation
						JOINT RightArmRoll
						{
							OFFSET 0.000000 -0.000001 6.213745
							CHANNELS 3 Xrotation Yrotation Zrotation
							JOINT RightForeArm
							{
								OFFSET 0.000000 -0.000003 18.098495
								CHANNELS 3 Xrotation Yrotation Zrotation
								JOINT RightForeArmRoll
								{
									OFFSET 0.000000 -0.000002 6.972794
									CHANNELS 3 Xrotation Yrotation Zrotation
									JOINT RightHand
									{
										OFFSET 0.000000 -0.000002 13.992905
										CHANNELS 3 Xrotation Yrotation Zrotation
										End Site
										{
											OFFSET 0.000000 0.000000 0.100006
										}
									}
								}
							}
						}
					}
				}
				JOINT LeftShoulder
				{
					OFFSET 3.659161 0.509512 9.384682
					CHANNELS 3 Xrotation Yrotation Zrotation
					JOINT LeftArm
					{
						OFFSET 0.000000 -0.000002 12.308907
						CHANNELS 3 Xrotation Yrotation Zrotation
						JOINT LeftArmRoll
						{
							OFFSET 0.000000 -0.000001 6.213745
							CHANNELS 3 Xrotation Yrotation Zrotation
							JOINT LeftForeArm
							{
								OFFSET 0.000000 -0.000003 18.098495
								CHANNELS 3 Xrotation Yrotation Zrotation
								JOINT LeftForeArmRoll
								{
									OFFSET 0.000000 -0.000002 6.972794
									CHANNELS 3 Xrotation Yrotation Zrotation
									JOINT LeftHand
									{
										OFFSET 0.000000 -0.000002 13.992905
										CHANNELS 3 Xrotation Yrotation Zrotation
										End Site
										{
											OFFSET 0.000000 0.000000 0.100006
										}
									}
								}
							}
						}
					}
				}
			}
		}
	}
	JOINT RightUpLeg
	{
		OFFSET -5.535149 0.851454 -1.014999
		CHANNELS 3 Xrotation Yrotation Zrotation
		JOINT RightUpLegRoll
		{
			OFFSET 0.000000 -0.000003 16.407501
			CHANNELS 3 Xrotation Yrotation Zrotation
			JOINT RightLeg
			{
				OFFSET 0.000000 0.000003 -20.318100
				CHANNELS 3 Xrotation Yrotation Zrotation
				JOINT RightLegRoll
				{
					OFFSET 0.000000 -0.000003 20.384598
					CHANNELS 3 Xrotation Yrotation Zrotation
					JOINT RightFoot
					{
						OFFSET 0.000000 -0.000003 16.966805
						CHANNELS 3 Xrotation Yrotation Zrotation
						JOINT RightToeBase
						{
							OFFSET 0.000000 -0.000002 14.183395
							CHANNELS 3 Xrotation Yrotation Zrotation
							End Site
							{
								OFFSET 0.006012 0.791744 6.868896
							}
						}
					}
				}
			}
		}
	}
	JOINT LeftUpLeg
	{
		OFFSET 5.535149 0.851454 -1.014999
		CHANNELS 3 Xrotation Yrotation Zrotation
		JOINT LeftUpLegRoll
		{
			OFFSET 0.000000 -0.000003 16.407600
			CHANNELS 3 Xrotation Yrotation Zrotation
			JOINT LeftLeg
			{
				OFFSET 0.000000 -0.000003 20.318100
				CHANNELS 3 Xrotation Yrotation Zrotation
				JOINT LeftLegRoll
				{
					OFFSET 0.000000 -0.000004 20.573105
					CHANNELS 3 Xrotation Yrotation Zrotation
					JOINT LeftFoot
					{
						OFFSET 0.000000 -0.000003 16.778305
						CHANNELS 3 Xrotation Yrotation Zrotation
						JOINT LeftToeBase
						{
							OFFSET 0.000000 -0.000002 14.183395
							CHANNELS 3 Xrotation Yrotation Zrotation
							End Site
							{
								OFFSET -0.026943 0.791745 6.868896
							}
						}
					}
				}
			}
		}
	}
}
MOTION
Frames: 10
Frame Time: 0.041667
46.945892 -12.646708 84.270790 -1.999169 -0.174886 -4.137755 -1.825913 0.291796 -0.013003 0.351024 0.569398 -0.022168 1.996128 0.569125 -0.030177 14.171940 -6.961611 1.101987 -0.928514 6.645205 1.210449 -0.202853 -69.887786 -1.474085 -53.709537 -128.356835 -70.788087 -0.000008 -0.000007 0.000003 93.691262 0.258740 -5.812344 0.000002 0.000004 -3.000000 -5.000026 -8.000009 0.000019 -16.207303 57.026667 19.104126 -41.989578 127.481670 60.537824 -0.000006 0.000006 -0.000001 91.503634 -2.743471 5.940007 0.000003 -0.000007 3.000001 -5.000002 7.999952 -0.000027 -6.859266 -176.412790 0.744817 -179.999991 0.000006 -0.870994 167.286182 -1.337403 -1.094699 0.000002 0.000003 0.183454 70.568572 5.938723 4.601389 25.456865 -7.355622 -0.000005 0.751409 176.348299 -3.089960 -0.000005 -0.000004 -1.089320 -10.332461 1.452901 0.893513 -0.000003 0.000003 -0.266955 73.288811 -6.689879 -2.390973 25.472313 7.355618 -0.011974 
46.954998 -12.648213 84.273300 -1.996371 -0.188388 -4.143196 -1.827082 0.293538 -0.012994 0.348649 0.573942 -0.021214 1.993760 0.573676 -0.029191 14.173816 -6.963639 1.105462 -0.929233 6.652183 1.213316 -0.176991 -69.895710 -1.446302 -53.702058 -128.420247 -70.878697 -0.000008 -0.000007 0.000005 93.652808 0.249522 -5.806951 -0.000001 0.000003 -2.999999 -5.000020 -8.000010 0.000021 -16.211574 57.026916 19.109273 -41.940186 127.517432 60.808478 -0.000005 0.000006 -0.000003 91.507938 -2.739507 6.001053 0.000005 -0.000007 3.000000 -5.000002 7.999951 -0.000023 -6.872901 -176.385086 0.762339 -179.999991 0.000005 -0.870994 167.271825 -1.349026 -1.095682 0.000002 0.000003 0.183453 70.572130 5.938695 4.600893 25.456863 -7.355622 -0.000004 0.756889 176.374308 -3.071987 -0.000005 -0.000004 -1.090070 -10.317127 1.447020 0.892155 -0.000003 0.000002 -0.266955 73.285874 -6.692600 -2.383151 25.472315 7.355618 -0.011974 
46.949493 -12.644614 84.266289 -1.993432 -0.202374 -4.148764 -1.828305 0.295343 -0.012993 0.346140 0.578662 -0.020213 1.991252 0.578406 -0.028157 14.176313 -6.966173 1.109078 -0.930232 6.659700 1.216301 -0.150659 -69.904029 -1.418049 -53.694911 -128.482552 -70.965338 -0.000006 -0.000007 0.000003 93.614750 0.240214 -5.801570 0.000001 0.000003 -3.000002 -5.000022 -8.000015 0.000019 -16.215069 57.027370 19.113496 -41.886944 127.550409 61.075620 -0.000006 0.000007 -0.000001 91.514016 -2.736400 6.063160 0.000004 -0.000006 3.000002 -5.000002 7.999954 -0.000025 -6.886983 -176.356400 0.780441 -179.999991 0.000005 -0.870994 167.256948 -1.360659 -1.096685 0.000002 0.000003 0.183453 70.575901 5.938680 4.600188 25.456863 -7.355621 -0.000005 0.762541 176.401329 -3.053365 -0.000005 -0.000004 -1.090840 -10.301194 1.440924 0.890756 -0.000004 0.000002 -0.266955 73.282671 -6.695456 -2.375062 25.472316 7.355616 -0.011973 
46.939793 -12.650212 84.267303 -1.990392 -0.216701 -4.154400 -1.829562 0.297192 -0.013000 0.343541 0.583505 -0.019177 1.988653 0.583256 -0.027089 14.179226 -6.969058 1.112787 -0.931418 6.667586 1.219367 -0.123990 -69.912758 -1.389459 -53.688214 -128.543805 -71.049609 -0.000006 -0.000008 0.000005 93.576884 0.230868 -5.797198 0.000002 0.000005 -3.000000 -5.000023 -8.000012 0.000017 -16.218136 57.028173 19.117203 -41.830343 127.581909 61.339511 -0.000007 0.000006 -0.000001 91.521325 -2.733827 6.126294 0.000004 -0.000007 2.999999 -5.000001 7.999952 -0.000025 -6.901360 -176.327726 0.799022 -179.999991 0.000005 -0.870995 167.241785 -1.372276 -1.096688 0.000002 0.000003 0.183454 70.579562 5.938658 4.599790 25.456861 -7.355622 -0.000005 0.768322 176.429332 -3.034284 -0.000005 -0.000004 -1.091630 -10.284860 1.434681 0.889330 -0.000003 0.000003 -0.266955 73.279283 -6.698385 -2.366898 25.472311 7.355618 -0.011975 
47.045593 -12.643612 84.265900 -1.987305 -0.231222 -4.160083 -1.830855 0.299067 -0.013009 0.340888 0.588418 -0.018123 1.985995 0.588178 -0.026001 14.182346 -6.972133 1.116546 -0.932718 6.675692 1.222478 -0.097113 -69.921575 -1.360664 -53.682265 -128.604252 -71.133128 -0.000008 -0.000009 0.000002 93.539195 0.221562 -5.790841 -0.000001 0.000005 -3.000002 -5.000022 -8.000010 0.000020 -16.220888 57.029040 19.120534 -41.772136 127.611621 61.602268 -0.000006 0.000005 -0.000002 91.529466 -2.731693 6.189466 0.000005 -0.000008 3.000001 -5.000000 7.999953 -0.000029 -6.915922 -176.298056 0.817742 -179.999991 0.000005 -0.870994 167.226499 -1.384876 -1.097934 0.000002 0.000003 0.183454 70.583434 5.938649 4.599082 25.456863 -7.355621 -0.000004 0.774166 176.457322 -3.014950 -0.000005 -0.000004 -1.092430 -10.268226 1.428341 0.887887 -0.000003 0.000002 -0.266955 73.275909 -6.701342 -2.358436 25.472315 7.355619 -0.011974 
47.015694 -12.647612 84.268394 -1.984197 -0.245792 -4.165775 -1.832144 0.300948 -0.013018 0.338221 0.593349 -0.017065 1.983336 0.593118 -0.024910 14.185565 -6.975266 1.120328 -0.934044 6.683859 1.225605 -0.070172 -69.930482 -1.331793 -53.676097 -128.664467 -71.216053 -0.000008 -0.000007 0.000004 93.501595 0.212220 -5.785480 0.000002 0.000004 -3.000001 -5.000023 -8.000011 0.000020 -16.223588 57.029996 19.123809 -41.712563 127.640731 61.863667 -0.000006 0.000006 -0.000003 91.537744 -2.729564 6.252637 0.000004 -0.000008 3.000001 -5.000001 7.999950 -0.000023 -6.930535 -176.267402 0.836416 -179.999991 0.000005 -0.870994 167.211131 -1.396488 -1.097954 0.000002 0.000003 0.183454 70.587205 5.938633 4.598476 25.456861 -7.355622 -0.000004 0.780034 176.485326 -2.995552 -0.000005 -0.000005 -1.093230 -10.251492 1.421991 0.886444 -0.000003 0.000003 -0.266955 73.272507 -6.704276 -2.350171 25.472316 7.355618 -0.011974 
47.041588 -12.649111 84.260406 -1.981119 -0.260267 -4.171442 -1.833426 0.302816 -0.013026 0.335582 0.598244 -0.016014 1.980697 0.598021 -0.023826 14.188681 -6.978296 1.124083 -0.935314 6.691907 1.228703 -0.043297 -69.939293 -1.302992 -53.668970 -128.725256 -71.298808 -0.000006 -0.000008 0.000003 93.463885 0.202843 -5.780128 -0.000001 0.000003 -3.000000 -5.000022 -8.000009 0.000021 -16.226421 57.030840 19.127246 -41.652409 127.669609 62.124846 -0.000006 0.000007 0.000000 91.545681 -2.727266 6.316798 0.000005 -0.000008 2.999999 -5.000002 7.999951 -0.000026 -6.945064 -176.237732 0.855041 -179.999991 0.000006 -0.870993 167.195859 -1.409085 -1.099213 0.000002 0.000003 0.183454 70.590968 5.938615 4.597974 25.456861 -7.355622 -0.000005 0.785862 176.513330 -2.976266 -0.000005 -0.000005 -1.094020 -10.234957 1.415678 0.885015 -0.000003 0.000002 -0.266955 73.269126 -6.707236 -2.341811 25.472316 7.355618 -0.011974 
47.049694 -12.662313 84.262001 -1.978115 -0.274499 -4.177051 -1.834675 0.304653 -0.013030 0.333008 0.603051 -0.014987 1.978119 0.602837 -0.022765 14.191491 -6.981075 1.127768 -0.936443 6.699693 1.231752 -0.016626 -69.947899 -1.274403 -53.660944 -128.786618 -71.382819 -0.000006 -0.000007 0.000004 93.425957 0.193493 -5.774795 0.000000 0.000005 -3.000001 -5.000027 -8.000013 0.000019 -16.229615 57.031543 19.131097 -41.591873 127.699457 62.385534 -0.000003 0.000006 0.000002 91.552703 -2.724538 6.379931 0.000004 -0.000008 3.000001 -5.000003 7.999953 -0.000024 -6.959364 -176.209059 0.873427 -179.999991 0.000005 -0.870994 167.180792 -1.420696 -1.100236 0.000002 0.000003 0.183454 70.594732 5.938597 4.597368 25.456865 -7.355619 -0.000004 0.791605 176.541334 -2.957287 -0.000005 -0.000004 -1.094800 -10.218626 1.409472 0.883609 -0.000004 0.000003 -0.266955 73.265834 -6.710132 -2.333635 25.472313 7.355617 -0.011974 
47.047691 -12.655414 84.269493 -1.975216 -0.288343 -4.182574 -1.835890 0.306439 -0.013026 0.330540 0.607718 -0.013997 1.975651 0.607512 -0.021743 14.193782 -6.983459 1.131341 -0.937357 6.707040 1.234707 0.009697 -69.956095 -1.246143 -53.651225 -128.849319 -71.468477 -0.000007 -0.000008 0.000004 93.387817 0.184166 -5.769441 0.000001 0.000006 -3.000002 -5.000022 -8.000014 0.000019 -16.233350 57.031950 19.135612 -41.531085 127.731409 62.645833 -0.000007 0.000006 0.000001 91.558153 -2.721081 6.441010 0.000003 -0.000007 3.000001 -5.000001 7.999950 -0.000027 -6.973320 -176.180372 0.891241 -179.999991 0.000005 -0.870994 167.166121 -1.432321 -1.100275 0.000002 0.000003 0.183454 70.598304 5.938602 4.596778 25.456860 -7.355621 -0.000005 0.797206 176.567330 -2.938846 -0.000005 -0.000004 -1.095570 -10.202893 1.403439 0.882245 -0.000002 0.000002 -0.266955 73.262733 -6.712954 -2.325638 25.472315 7.355616 -0.011975 
47.063797 -12.648611 84.266991 -1.972478 -0.301654 -4.187959 -1.837026 0.308156 -0.013013 0.328218 0.612191 -0.013058 1.973333 0.611993 -0.020774 14.195349 -6.985283 1.134754 -0.937970 6.713808 1.237529 0.035541 -69.963793 -1.218361 -53.639941 -128.913400 -71.557180 -0.000008 -0.000007 0.000003 93.349254 0.174873 -5.765104 -0.000001 0.000005 -2.999999 -5.000024 -8.000009 0.000021 -16.237889 57.032062 19.141079 -41.472058 127.765259 62.907859 -0.000005 0.000006 0.000001 91.561623 -2.716679 6.501025 0.000005 -0.000006 3.000001 -5.000001 7.999954 -0.000025 -6.986787 -176.152696 0.908374 -179.999991 0.000005 -0.870994 167.151845 -1.443935 -1.101289 0.000002 0.000003 0.183454 70.601855 5.938573 4.596283 25.456863 -7.355622 -0.000005 0.802615 176.593339 -2.921076 -0.000005 -0.000004 -1.096320 -10.187865 1.397639 0.880933 -0.000004 0.000002 -0.266955 73.259796 -6.715677 -2.317916 25.472311 7.355618 -0.011974 
